<?xml version="1.0" standalone="no"?>
<!DOCTYPE svg PUBLIC "-//W3C//DTD SVG 20010904//EN"
 "http://www.w3.org/TR/2001/REC-SVG-20010904/DTD/svg10.dtd">
<svg version="1.0" xmlns="http://www.w3.org/2000/svg"
 width="260.000000pt" height="260.000000pt" viewBox="0 0 260.000000 260.000000"
 preserveAspectRatio="xMidYMid meet">
<metadata>
Created by potrace 1.11, written by Peter Selinger 2001-2013
</metadata>
<g transform="translate(0.000000,260.000000) scale(0.100000,-0.100000)"
fill="#000000" stroke="none">
<path d="M278 1875 c-2 -1 -34 -5 -73 -8 -114 -10 -169 -19 -182 -30 -18 -13
-16 -47 3 -68 13 -14 21 -15 52 -7 153 42 479 46 661 9 199 -42 265 -101 256
-228 -9 -121 -61 -211 -204 -353 -92 -92 -252 -216 -353 -275 l-48 -27 -2 214
c-3 535 -4 531 14 580 14 39 14 49 3 58 -26 21 -59 7 -79 -34 -16 -33 -19 -61
-19 -190 1 -473 1 -629 -1 -696 -1 -63 2 -75 16 -78 9 -2 25 5 35 15 10 10 52
39 93 65 184 114 468 372 549 497 56 87 80 167 77 256 -3 105 -40 161 -138
211 -51 26 -166 59 -238 69 -25 4 -61 9 -80 12 -34 5 -337 12 -342 8z"/>
<path d="M2045 1865 c-172 -31 -435 -118 -525 -173 -33 -20 -46 -35 -48 -55
-5 -44 33 -45 104 -3 55 33 182 86 205 86 7 0 8 -28 4 -82 -9 -112 -9 -176 0
-283 20 -253 21 -464 3 -525 -18 -57 -13 -77 19 -85 58 -14 73 48 70 293 l-2
182 65 21 c36 12 115 44 176 70 187 81 367 89 390 17 9 -28 -15 -100 -53 -157
-48 -73 -163 -187 -251 -249 -69 -48 -97 -61 -197 -92 -72 -22 -108 -78 -71
-109 65 -54 381 166 559 389 89 112 114 190 83 263 -24 58 -79 80 -198 80
l-96 1 43 49 c86 99 130 243 91 302 -32 48 -90 69 -201 71 -55 1 -131 -4 -170
-11z m262 -78 c37 -20 48 -50 38 -105 -23 -125 -175 -268 -370 -349 -109 -45
-112 -44 -117 20 -8 100 -1 312 11 359 12 44 15 47 59 57 159 38 326 45 379
18z"/>
<path d="M1276 966 c-23 -22 -24 -28 -14 -63 22 -82 63 -138 103 -144 29 -4
65 10 65 25 0 30 -31 97 -65 142 -50 66 -60 70 -89 40z"/>
</g>
</svg>
